<svg width="100" height="100" viewBox="0 0 100 100" fill="none" xmlns="http://www.w3.org/2000/svg">
<g clip-path="url(#clip0)">
<path d="M98.7278 74.9999C99.5124 73.7922 100 72.4313 100 71.2093V28.7906C100 27.5686 99.5131 26.208 98.7281 25.0002L50 50.0001L98.7278 74.9999Z" fill="#00599C"/>
<path d="M54.3301 99.0832L95.6699 77.874C96.8608 77.263 97.9431 76.2079 98.7278 74.9999L50 50L1.27222 75.0001C2.05686 76.2079 3.13954 77.2633 4.33006 77.874L45.6699 99.0832C48.0513 100.305 51.9487 100.305 54.3301 99.0832Z" fill="#004482"/>
<path d="M98.7281 24.9999C97.9431 23.7918 96.8605 22.7367 95.6699 22.1257L54.3301 0.916509C51.9487 -0.305503 48.0513 -0.305503 45.6699 0.916509L4.33007 22.1257C1.94837 23.3475 0 26.3467 0 28.7905V71.2092C0 72.4312 0.487255 73.7921 1.27222 74.9998L50 50L98.7281 24.9999Z" fill="#659AD2"/>
<path d="M50.0001 79.6209C31.62 79.6209 16.6667 66.333 16.6667 49.9999C16.6667 33.6668 31.62 20.3789 50.0001 20.3789C61.8602 20.3789 72.9213 26.0505 78.8664 35.1801L64.4406 42.5982C61.4651 38.0284 55.9315 35.1894 50.0001 35.1894C40.8099 35.1894 33.3334 41.8332 33.3334 49.9999C33.3334 58.1663 40.8099 64.8104 50.0001 64.8104C55.9321 64.8104 61.4658 61.9715 64.4416 57.4008L78.8674 64.8186C72.9223 73.9491 61.8609 79.6209 50.0001 79.6209Z" fill="white"/>
<path d="M83.3333 48.3544H79.6294V45.0632H75.9261V48.3544H72.2222V51.6455H75.9261V54.9369H79.6294V51.6455H83.3333V48.3544Z" fill="white"/>
<path d="M97.2222 48.3544H93.5183V45.0632H89.815V48.3544H86.1111V51.6455H89.815V54.9369H93.5183V51.6455H97.2222V48.3544Z" fill="white"/>
</g>
<defs>
<clipPath id="clip0">
<rect width="100" height="100" fill="white"/>
</clipPath>
</defs>
</svg>
