<svg width="164" height="50" viewBox="0 0 164 50" fill="none" xmlns="http://www.w3.org/2000/svg">
<path d="M44.4673 27.2721C44.3677 28.649 43.8579 29.733 42.938 30.524C42.0239 31.3151 40.8169 31.7106 39.3169 31.7106C37.6763 31.7106 36.3843 31.1598 35.4409 30.0582C34.5034 28.9508 34.0347 27.4332 34.0347 25.5055V24.7233C34.0347 23.4928 34.2515 22.4088 34.6851 21.4713C35.1187 20.5338 35.7368 19.816 36.5396 19.318C37.3481 18.8141 38.2856 18.5621 39.3521 18.5621C40.8286 18.5621 42.0181 18.9576 42.9204 19.7487C43.8228 20.5397 44.3442 21.65 44.4849 23.0797H41.8481C41.7837 22.2535 41.5522 21.6559 41.1538 21.2867C40.7612 20.9117 40.1606 20.7242 39.3521 20.7242C38.4731 20.7242 37.814 21.0406 37.3745 21.6735C36.9409 22.3004 36.7183 23.276 36.7065 24.6002V25.567C36.7065 26.9498 36.9146 27.9606 37.3306 28.5992C37.7524 29.2379 38.4146 29.5573 39.3169 29.5573C40.1313 29.5573 40.7378 29.3727 41.1362 29.0035C41.5405 28.6285 41.772 28.0514 41.8306 27.2721H44.4673ZM56.7104 25.4264C56.7104 26.6862 56.4878 27.7906 56.0425 28.7399C55.5972 29.6891 54.9585 30.4215 54.1265 30.9371C53.3003 31.4528 52.3511 31.7106 51.2788 31.7106C50.2183 31.7106 49.272 31.4557 48.4399 30.9459C47.6079 30.4362 46.9634 29.7096 46.5063 28.7662C46.0493 27.817 45.8179 26.7272 45.812 25.4967V24.8639C45.812 23.6041 46.0376 22.4967 46.4888 21.5416C46.9458 20.5807 47.5874 19.8453 48.4136 19.3356C49.2456 18.8199 50.1948 18.5621 51.2612 18.5621C52.3276 18.5621 53.2739 18.8199 54.1001 19.3356C54.9321 19.8453 55.5737 20.5807 56.0249 21.5416C56.4819 22.4967 56.7104 23.6012 56.7104 24.8551V25.4264ZM54.0386 24.8463C54.0386 23.5045 53.7983 22.485 53.3179 21.7877C52.8374 21.0905 52.1519 20.7418 51.2612 20.7418C50.3765 20.7418 49.6938 21.0875 49.2134 21.7789C48.7329 22.4645 48.4897 23.4723 48.4839 24.8024V25.4264C48.4839 26.733 48.7241 27.7467 49.2046 28.4674C49.6851 29.1881 50.3765 29.5485 51.2788 29.5485C52.1636 29.5485 52.8433 29.2028 53.3179 28.5114C53.7925 27.8141 54.0327 26.8004 54.0386 25.4703V24.8463ZM58.6265 31.5348V18.7379H62.564C63.689 18.7379 64.6938 18.9928 65.5786 19.5026C66.4692 20.0065 67.1636 20.7272 67.6616 21.6647C68.1597 22.5963 68.4087 23.6569 68.4087 24.8463V25.4352C68.4087 26.6246 68.1626 27.6823 67.6704 28.608C67.1841 29.5338 66.4956 30.2516 65.605 30.7614C64.7144 31.2711 63.7095 31.5289 62.5903 31.5348H58.6265ZM61.2632 20.8737V29.4166H62.5376C63.5688 29.4166 64.3569 29.0797 64.9019 28.4059C65.4468 27.7321 65.7251 26.7682 65.7368 25.5143V24.8375C65.7368 23.5367 65.4673 22.5524 64.9282 21.8844C64.3892 21.2106 63.6011 20.8737 62.564 20.8737H61.2632ZM78.0327 25.9889H72.9702V29.4166H78.9116V31.5348H70.3335V18.7379H78.894V20.8737H72.9702V23.9235H78.0327V25.9889ZM86.1626 18.7379H87.8589V27.7994C87.8589 29.024 87.4897 29.9821 86.7515 30.6735C86.019 31.3649 85.0405 31.7106 83.8159 31.7106C82.5444 31.7106 81.5542 31.3854 80.8452 30.735C80.1362 30.0846 79.7817 29.1735 79.7817 28.0016H81.4692C81.4692 28.734 81.6685 29.3053 82.0669 29.7155C82.4712 30.1256 83.0542 30.3307 83.8159 30.3307C84.5132 30.3307 85.0757 30.111 85.5034 29.6715C85.937 29.2321 86.1567 28.6168 86.1626 27.8258V18.7379ZM97.606 28.1949H92.2446L91.0405 31.5348H89.3003L94.187 18.7379H95.6636L100.559 31.5348H98.8276L97.606 28.1949ZM92.7544 26.8063H97.105L94.9253 20.8209L92.7544 26.8063ZM112.117 31.5348H110.42L103.978 21.6735V31.5348H102.282V18.7379H103.978L110.438 28.6432V18.7379H112.117V31.5348ZM116.924 31.5348H115.237V18.7379H116.924V31.5348ZM128.596 20.1266H124.483V31.5348H122.804V20.1266H118.7V18.7379H128.596V20.1266ZM140.092 25.5494C140.092 26.8033 139.881 27.899 139.459 28.8365C139.038 29.7682 138.44 30.4801 137.667 30.9723C136.893 31.4645 135.991 31.7106 134.959 31.7106C133.952 31.7106 133.058 31.4645 132.279 30.9723C131.5 30.4742 130.893 29.7682 130.459 28.8541C130.032 27.9342 129.812 26.8707 129.8 25.6637V24.7408C129.8 23.5104 130.014 22.4235 130.442 21.4801C130.87 20.5367 131.473 19.816 132.252 19.318C133.038 18.8141 133.934 18.5621 134.942 18.5621C135.967 18.5621 136.87 18.8112 137.649 19.3092C138.434 19.8014 139.038 20.5192 139.459 21.4625C139.881 22.4 140.092 23.4928 140.092 24.7408V25.5494ZM138.414 24.7233C138.414 23.2057 138.109 22.0426 137.5 21.234C136.89 20.4196 136.038 20.0123 134.942 20.0123C133.875 20.0123 133.035 20.4196 132.419 21.234C131.81 22.0426 131.497 23.1676 131.479 24.609V25.5494C131.479 27.0201 131.787 28.1774 132.402 29.0211C133.023 29.859 133.875 30.278 134.959 30.278C136.049 30.278 136.893 29.8824 137.491 29.0914C138.088 28.2946 138.396 27.1549 138.414 25.6725V24.7233ZM147.317 26.358H144.311V31.5348H142.615V18.7379H146.851C148.292 18.7379 149.4 19.066 150.173 19.7223C150.953 20.3785 151.342 21.3336 151.342 22.5875C151.342 23.3844 151.125 24.0787 150.692 24.6705C150.264 25.2623 149.667 25.7047 148.899 25.9977L151.905 31.4293V31.5348H150.094L147.317 26.358ZM144.311 24.9781H146.904C147.742 24.9781 148.407 24.7614 148.899 24.3278C149.397 23.8942 149.646 23.3141 149.646 22.5875C149.646 21.7965 149.409 21.1901 148.934 20.7682C148.465 20.3463 147.786 20.1324 146.895 20.1266H144.311V24.9781ZM157.486 25.8307C156.039 25.4147 154.984 24.9049 154.322 24.3014C153.666 23.692 153.337 22.942 153.337 22.0514C153.337 21.0436 153.739 20.2115 154.542 19.5553C155.35 18.8932 156.399 18.5621 157.688 18.5621C158.567 18.5621 159.349 18.7321 160.035 19.0719C160.726 19.4117 161.259 19.8805 161.634 20.4781C162.015 21.0758 162.206 21.7291 162.206 22.4381H160.509C160.509 21.6647 160.263 21.0582 159.771 20.6188C159.279 20.1735 158.584 19.9508 157.688 19.9508C156.856 19.9508 156.206 20.1354 155.737 20.5045C155.274 20.8678 155.042 21.3746 155.042 22.025C155.042 22.5465 155.262 22.9889 155.702 23.3522C156.147 23.7096 156.9 24.0377 157.96 24.3365C159.027 24.6354 159.859 24.9664 160.457 25.3297C161.06 25.6871 161.505 26.1061 161.792 26.5865C162.085 27.067 162.232 27.6324 162.232 28.2828C162.232 29.3199 161.828 30.152 161.019 30.7789C160.21 31.4 159.129 31.7106 157.776 31.7106C156.897 31.7106 156.077 31.5436 155.315 31.2096C154.553 30.8698 153.964 30.4069 153.548 29.8209C153.138 29.235 152.933 28.5699 152.933 27.8258H154.629C154.629 28.5992 154.914 29.2115 155.482 29.6627C156.056 30.108 156.821 30.3307 157.776 30.3307C158.667 30.3307 159.349 30.149 159.824 29.7858C160.298 29.4225 160.536 28.9274 160.536 28.3004C160.536 27.6735 160.316 27.1901 159.876 26.8502C159.437 26.5045 158.64 26.1647 157.486 25.8307Z" fill="black"/>
<path d="M8.75971 2.90097C9.23479 4.27122 9.70108 7.75935 9.87486 9.98314L9.33007 9.97756C9.21252 9.97636 9.09906 10.046 9.01464 10.1711C8.93023 10.2963 8.88178 10.4667 8.87996 10.6449C8.85869 12.8842 9.42427 15.0372 10.4526 16.6313C11.481 18.2255 12.8881 19.1307 14.3654 19.1484L14.5553 19.1503L14.5386 20.782C14.5368 20.9602 14.5817 21.1316 14.6636 21.2584C14.7454 21.3853 14.8574 21.4572 14.975 21.4584L15.2915 21.4617L15.0437 45.649C15.0387 46.1327 15.1607 46.5978 15.3828 46.9422C15.6049 47.2865 15.909 47.4817 16.228 47.485C16.5471 47.4883 16.8551 47.2993 17.0842 46.9596C17.3133 46.6199 17.4448 46.1574 17.4498 45.6737L17.6976 21.4863L18.0142 21.4896C18.1318 21.4908 18.2452 21.4211 18.3296 21.296C18.414 21.1708 18.4625 21.0004 18.4643 20.8222L18.481 19.1905L18.671 19.1925C20.1483 19.2051 21.5737 18.3289 22.6345 16.7562C23.6953 15.1834 24.3049 13.0425 24.3295 10.8032C24.3313 10.625 24.2864 10.4536 24.2046 10.3268C24.1227 10.1999 24.0107 10.128 23.8932 10.1268L23.3486 10.1212C23.5822 7.72535 24.1407 4.33681 24.6097 3.06223C24.6472 2.96023 24.6666 2.84547 24.6661 2.72918C24.6657 2.61288 24.6453 2.49902 24.607 2.39873C24.5687 2.29844 24.5139 2.21515 24.4478 2.15699C24.3816 2.09884 24.3065 2.06781 24.2298 2.06694L9.16017 1.91252C9.08335 1.91173 9.00754 1.94121 8.94018 1.99809C8.87281 2.05497 8.8162 2.13728 8.77589 2.23695C8.73559 2.33662 8.71297 2.45023 8.71027 2.56664C8.70757 2.68305 8.72487 2.79826 8.76047 2.90098L8.75971 2.90097ZM16.5633 45.6646C16.562 45.7919 16.5274 45.9136 16.4671 46.003C16.4068 46.0924 16.3258 46.1421 16.2418 46.1413C16.1578 46.1404 16.0778 46.089 16.0194 45.9984C15.9609 45.9078 15.9288 45.7854 15.9301 45.6581L16.178 21.4707L16.8112 21.4772L16.5633 45.6646ZM17.5848 20.1413L15.4319 20.1192L15.4418 19.1594L17.5946 19.1815L17.5848 20.1413ZM18.6848 17.8487L14.3791 17.8046C13.2136 17.7904 12.0971 17.1192 11.247 15.9216C10.3969 14.7241 9.87406 13.0859 9.78029 11.3261L23.4154 11.4658C23.2856 13.2233 22.7293 14.8504 21.8548 16.0303C20.9804 17.2102 19.8503 17.8584 18.6848 17.8487ZM11.8746 3.28422C12.112 4.21909 12.2826 5.19061 12.3835 6.18224C12.4038 6.35566 12.4684 6.50941 12.5633 6.61032C12.6581 6.71124 12.7757 6.75123 12.8906 6.72168C13.0055 6.69212 13.1086 6.59538 13.1775 6.45232C13.2465 6.30927 13.2758 6.13137 13.2591 5.95699C13.1631 5.05236 13.0186 4.16174 12.8269 3.29397L14.2491 3.30855C14.4921 4.30513 14.6154 6.00007 14.719 7.67408C14.7245 7.76182 14.7413 7.84692 14.7685 7.92454C14.7957 8.00215 14.8327 8.07075 14.8775 8.12642C14.9223 8.18209 14.974 8.22375 15.0296 8.24899C15.0852 8.27425 15.1437 8.28261 15.2016 8.27359C15.2596 8.26458 15.3159 8.23838 15.3673 8.19647C15.4188 8.15457 15.4643 8.09779 15.5015 8.02937C15.5386 7.96096 15.5665 7.88225 15.5837 7.79774C15.6008 7.71323 15.6068 7.62457 15.6014 7.53682C15.54 6.1144 15.4004 4.70326 15.1839 3.31813L18.4698 3.3518C18.3033 4.23883 18.1903 5.14631 18.1323 6.06299C18.1198 6.24035 18.1542 6.41737 18.2281 6.55508C18.3019 6.6928 18.4091 6.77994 18.526 6.79732C18.6429 6.81471 18.76 6.76093 18.8515 6.64781C18.943 6.53468 19.0014 6.37149 19.0139 6.19412C19.0731 5.23317 19.1993 4.28356 19.3905 3.36123L20.9658 3.37737C20.6973 4.77353 20.4794 6.19026 20.3129 7.6212C20.3027 7.7082 20.3039 7.79724 20.3164 7.88325C20.3289 7.96926 20.3525 8.05054 20.3858 8.12246C20.4191 8.19437 20.4615 8.25552 20.5105 8.3024C20.5596 8.34928 20.6143 8.38098 20.6716 8.39569C20.7874 8.42539 20.9066 8.38407 21.003 8.28083C21.0507 8.22971 21.0914 8.16492 21.1228 8.09017C21.1541 8.01542 21.1755 7.93217 21.1857 7.84516C21.3604 6.33972 21.5949 4.85088 21.888 3.38682L23.5373 3.40372C23.0304 5.58172 22.6675 7.82891 22.4538 10.112L10.7694 9.99231C10.6034 7.70528 10.2871 5.45108 9.82517 3.26321L11.8746 3.28422Z" fill="black"/>
<path d="M14.1803 15.5948L18.9291 15.6435C19.0466 15.6447 19.1601 15.575 19.2445 15.4499C19.3289 15.3247 19.3774 15.1543 19.3792 14.9761C19.381 14.7979 19.3361 14.6266 19.2543 14.4997C19.1724 14.3729 19.0604 14.3009 18.9429 14.2997L14.194 14.2511C14.0765 14.2499 13.963 14.3195 13.8786 14.4446C13.7942 14.5698 13.7457 14.7402 13.7439 14.9184C13.7421 15.0966 13.787 15.268 13.8689 15.3948C13.9507 15.5217 14.0627 15.5936 14.1803 15.5948Z" fill="black"/>
</svg>
