<svg width="74" height="69" viewBox="0 0 74 69" fill="none" xmlns="http://www.w3.org/2000/svg">
<path d="M37.0001 5.75C19.9801 5.75 6.16675 18.63 6.16675 34.5C6.16675 50.37 19.9801 63.25 37.0001 63.25C54.0201 63.25 67.8334 50.37 67.8334 34.5C67.8334 18.63 54.0201 5.75 37.0001 5.75ZM41.3476 52.0088V57.5H33.1151V51.9512C27.8426 50.9162 23.3717 47.7537 23.0326 42.1763H29.0759C29.3843 45.195 31.6042 47.5525 37.2467 47.5525C43.2901 47.5525 44.6467 44.735 44.6467 42.9813C44.6467 40.595 43.2901 38.3525 36.4143 36.8288C28.7676 35.1038 23.5259 32.1713 23.5259 26.2775C23.5259 21.3325 27.8117 18.1125 33.1151 17.0487V11.5H41.3476V17.1062C47.0826 18.4 49.9501 22.4538 50.1351 26.8525H44.0918C43.9376 23.6613 42.1184 21.4762 37.2467 21.4762C32.6217 21.4762 29.8468 23.4312 29.8468 26.1912C29.8468 28.6062 31.8509 30.1875 38.0793 31.6825C44.3076 33.1775 50.9676 35.6788 50.9676 42.9238C50.9368 48.185 46.7126 51.06 41.3476 52.0088Z" fill="#66B8F0"/>
</svg>
