<svg width="459" height="383" viewBox="0 0 459 383" fill="none" xmlns="http://www.w3.org/2000/svg">
<g clip-path="url(#clip0)">
<path d="M434.626 313.196C442.654 342.443 365.386 409.265 229.442 371.962C119.988 341.928 24.2585 329.208 24.2585 313.196C24.2585 297.185 116.122 313.98 229.442 313.98C342.762 313.98 430.395 297.781 434.626 313.196Z" fill="#3F3D56"/>
<path opacity="0.1" d="M434.626 313.196C442.654 342.443 365.386 409.265 229.442 371.962C119.988 341.928 24.2585 329.208 24.2585 313.196C24.2585 297.185 116.122 313.98 229.442 313.98C342.762 313.98 430.395 297.781 434.626 313.196Z" fill="black"/>
<path d="M434.626 313.196C442.654 342.443 365.386 379.49 229.442 342.187C119.988 312.153 24.2585 329.208 24.2585 313.196C24.2585 297.185 116.122 284.205 229.442 284.205C342.762 284.205 430.395 297.781 434.626 313.196Z" fill="#3F3D56"/>
<path opacity="0.1" d="M295.42 334.2C304.185 334.2 311.29 331.683 311.29 328.578C311.29 325.473 304.185 322.956 295.42 322.956C286.656 322.956 279.551 325.473 279.551 328.578C279.551 331.683 286.656 334.2 295.42 334.2Z" fill="black"/>
<path opacity="0.1" d="M360.12 334.2C368.884 334.2 375.989 331.683 375.989 328.578C375.989 325.473 368.884 322.956 360.12 322.956C351.355 322.956 344.25 325.473 344.25 328.578C344.25 331.683 351.355 334.2 360.12 334.2Z" fill="black"/>
<path opacity="0.1" d="M229.5 317.958C258.154 317.958 281.382 311.526 281.382 303.591C281.382 295.656 258.154 289.224 229.5 289.224C200.847 289.224 177.618 295.656 177.618 303.591C177.618 311.526 200.847 317.958 229.5 317.958Z" fill="black"/>
<path d="M459 259.864V0H0V259.864H211.799V294.602C201.221 295.898 194.098 298.318 194.098 301.092C194.098 305.232 209.948 308.588 229.5 308.588C249.052 308.588 264.902 305.232 264.902 301.092C264.902 298.318 257.779 295.898 247.201 294.602V259.864H459Z" fill="#3F3D56"/>
<path d="M435.195 9.10428H23.8044V242.014H435.195V9.10428Z" fill="#F2F2F2"/>
<path opacity="0.1" d="M435.195 9.37009C435.195 9.37009 264.291 27.4856 233.162 97.449C202.033 167.412 23.8044 241.748 23.8044 241.748H435.195V9.37009Z" fill="black"/>
<path d="M358.439 120.562V137.833H295.27V121.618H293.439V328.578H295.27V291.527H358.439V328.578H360.27V120.562H358.439ZM358.439 139.707V168.197H295.27V139.707L358.439 139.707ZM295.27 228.925V200.435H358.439V228.925H295.27ZM358.439 230.799V259.289H295.27V230.799H358.439ZM295.27 198.561V170.071H358.439V198.561H295.27ZM295.27 289.653V261.163H358.439V289.653H295.27Z" fill="#2F2E41"/>
<path d="M275.352 124.674V127.263C275.352 127.263 273.545 128.003 273.545 130.961C273.545 133.92 272.1 145.015 272.1 145.015C272.1 145.015 274.629 147.233 276.797 146.494C277.997 146.121 279.106 145.491 280.049 144.645L280.411 133.18L278.965 130.222V125.044L275.352 124.674Z" fill="#6C63FF"/>
<path d="M344.481 21.8636C344.481 21.8636 338.196 22.6032 338.196 25.5618C338.196 28.5204 333.169 39.615 333.169 39.615C333.169 39.615 341.967 41.834 349.508 41.0943C357.05 40.3547 360.82 39.2452 360.82 39.2452L362.077 27.7807L357.05 24.8221L344.481 21.8636Z" fill="#6C63FF"/>
<path d="M345.094 47.7511V40.7245C345.094 40.7245 337.505 25.192 343.648 25.192C349.791 25.192 350.514 39.2452 350.514 39.2452V49.2304L345.094 47.7511Z" fill="#FFB8B8"/>
<path d="M280.049 121.346C280.049 121.346 276.074 119.127 275.352 121.346C274.629 123.565 272.461 128.372 275.352 128.742C278.242 129.112 281.133 126.523 281.133 126.523L280.049 121.346Z" fill="#FFB8B8"/>
<path d="M299.613 136.326C299.613 136.326 297.437 139.267 300.594 167.96C303.751 196.652 301.932 217.544 307.925 217.258C307.925 217.258 306.361 223.479 311.453 223.709C316.546 223.938 318.872 224.3 319.269 222.862C319.665 221.425 320.286 214.776 318.903 214.842C318.903 214.842 318.989 216.729 319.567 209.136C320.144 201.543 318.509 165.685 320.598 160.857L328.771 177.961C328.771 177.961 329.137 185.982 330.692 189.691C332.247 193.399 335.542 214.992 335.542 214.992L335.232 218.317C335.232 218.317 346.382 219.676 346.757 217.766C347.132 215.857 347.003 213.026 346.499 212.105C345.995 211.183 345.995 211.183 346.831 209.252C347.201 208.526 347.415 207.727 347.457 206.909C347.499 206.091 347.37 205.274 347.077 204.512C346.551 203.118 345.152 172.45 345.152 172.45C345.152 172.45 342.53 135.221 336.912 133.598C331.293 131.975 299.613 136.326 299.613 136.326Z" fill="#2F2E41"/>
<path d="M309.437 220.022L306.05 226.804C306.05 226.804 300.191 224.956 301.591 230.327C307.215 230.506 312.844 230.158 318.407 229.287C318.407 229.287 320.755 230.12 321.151 228.683C321.548 227.245 319.708 222.368 318.325 222.435C316.942 222.501 309.437 220.022 309.437 220.022Z" fill="#2F2E41"/>
<path d="M336.089 216.857C336.089 216.857 332.789 225.526 334.193 225.932C335.598 226.338 348.131 227.63 349.075 228.058C350.018 228.486 354.65 228.737 354.982 225.884C355.314 223.031 352.504 222.22 352.504 222.22C352.504 222.22 347.39 221.519 345.792 216.867C344.194 212.215 336.089 216.857 336.089 216.857Z" fill="#2F2E41"/>
<path d="M304.794 65.99C310.125 65.99 314.446 61.5671 314.446 56.1112C314.446 50.6552 310.125 46.2323 304.794 46.2323C299.463 46.2323 295.141 50.6552 295.141 56.1112C295.141 61.5671 299.463 65.99 304.794 65.99Z" fill="#FFB8B8"/>
<path d="M299.713 60.7906C299.713 60.7906 302.253 74.3091 301.237 76.9088C300.221 79.5085 315.462 75.8689 315.462 75.8689C315.462 75.8689 312.414 62.3505 312.922 59.2308C313.43 56.1112 299.713 60.7906 299.713 60.7906Z" fill="#FFB8B8"/>
<path d="M304.5 43.9094C303.698 43.7605 302.873 43.7978 302.086 44.0185C301.456 44.3038 300.876 44.693 300.37 45.1705C299.451 45.9202 298.469 46.5859 297.436 47.1599C296.573 47.5398 295.796 48.0973 295.153 48.7977C294.881 49.1802 294.664 49.6006 294.509 50.0459C293.518 52.6336 293.252 55.4525 293.74 58.1863C293.795 58.5747 293.909 58.952 294.079 59.3041C294.607 60.2997 295.773 60.6921 296.755 61.214C298.62 62.2049 300.034 63.8735 301.564 65.3481C302.132 65.9286 302.771 66.4323 303.464 66.8467C305.647 68.0646 308.314 67.6673 310.764 67.2366C310.938 67.2363 311.11 67.2008 311.27 67.1321C311.43 67.0635 311.575 66.9631 311.697 66.8368C311.819 66.7104 311.916 66.5606 311.981 66.3959C312.046 66.2312 312.079 66.055 312.077 65.8773L314.011 56.9757C314.362 55.6568 314.529 54.2939 314.507 52.9273C314.372 50.7664 313.229 47.7731 311.679 46.2381C309.874 44.4497 306.86 44.1651 304.5 43.9094Z" fill="#2F2E41"/>
<path d="M297.394 77.7068C297.394 77.7068 298.117 72.5293 302.453 72.1594C304.906 71.9225 307.328 71.4268 309.681 70.6802C310.042 70.6802 314.739 71.05 316.908 73.2689C316.908 73.2689 318.353 75.4879 319.076 74.0086C319.798 72.5293 319.798 71.7896 321.244 72.5293C322.689 73.2689 322.689 70.3103 325.219 70.6802C327.748 71.05 334.253 87.692 334.253 87.692L332.085 90.2808C332.085 90.2808 329.194 110.251 334.253 118.757C339.312 127.263 341.48 136.509 336.421 138.358C331.362 140.207 295.949 156.849 297.394 146.494C298.84 136.139 297.756 119.867 296.31 119.497C294.865 119.127 286.915 89.9109 286.915 89.9109C287.235 88.056 287.995 86.31 289.129 84.8267C290.264 83.3434 291.737 82.1684 293.419 81.405C299.201 78.8163 297.394 77.7068 297.394 77.7068Z" fill="#575A88"/>
<path d="M323.412 72.1594L325.219 70.6801C325.219 70.6801 328.471 70.6801 328.832 69.9405C329.194 69.2008 331.001 69.2009 332.446 68.4612C333.891 67.7216 332.085 66.6121 333.891 65.8725C335.698 65.1328 335.698 65.8725 335.698 64.0233C335.698 62.1742 340.396 60.3251 340.757 58.1062C341.119 55.8872 344.732 45.5322 344.732 45.5322L351.598 47.7511L349.791 61.0648C349.791 61.0648 349.791 67.7216 346.539 72.1594C343.287 76.5973 336.06 87.692 332.446 88.0618C328.832 88.4316 323.412 72.1594 323.412 72.1594Z" fill="#575A88"/>
<path d="M289.083 88.0618L286.915 89.9109C286.915 89.9109 286.192 98.047 286.192 98.4169C286.192 98.7867 286.915 103.225 286.192 103.594C285.47 103.964 284.024 111.361 284.386 111.73V112.84L279.327 120.976V128.742L291.251 120.976C291.251 120.976 298.117 120.236 297.033 113.949C295.949 107.662 289.083 88.0618 289.083 88.0618Z" fill="#575A88"/>
<path d="M229.5 259.864C233.208 259.864 236.214 256.787 236.214 252.993C236.214 249.198 233.208 246.121 229.5 246.121C225.792 246.121 222.786 249.198 222.786 252.993C222.786 256.787 225.792 259.864 229.5 259.864Z" fill="#6C63FF"/>
</g>
<defs>
<clipPath id="clip0">
<rect width="459" height="383" fill="white"/>
</clipPath>
</defs>
</svg>
